<svg xmlns="http://www.w3.org/2000/svg" xmlns:xlink="http://www.w3.org/1999/xlink" width="58" height="58" viewBox="0 0 58 58"><defs><style>.a{fill:#ffd400;}.b{fill:#404d7a;}.c{fill:none;}.d{filter:url(#a);}</style><filter id="a" x="0" y="0" width="58" height="58" filterUnits="userSpaceOnUse"><feOffset dy="3" input="SourceAlpha"/><feGaussianBlur stdDeviation="3" result="b"/><feFlood flood-opacity="0.161"/><feComposite operator="in" in2="b"/><feComposite in="SourceGraphic"/></filter></defs><g transform="translate(-1461 -356)"><g class="d" transform="matrix(1, 0, 0, 1, 1461, 356)"><circle class="a" cx="20" cy="20" r="20" transform="translate(9 6)"/></g><g transform="translate(1477.273 369.273)"><path class="b" d="M20.091,12.545H17.97v3.182H14.788v2.121h5.3ZM7.364,9.364h3.182V7.242h-5.3v5.3H7.364ZM22.212,3H3.121A2.127,2.127,0,0,0,1,5.121V19.97a2.127,2.127,0,0,0,2.121,2.121H22.212a2.127,2.127,0,0,0,2.121-2.121V5.121A2.127,2.127,0,0,0,22.212,3Zm0,16.98H3.121V5.111H22.212Z" transform="translate(0.061 0.182)"/><path class="c" d="M0,0H25.455V25.455H0Z"/></g></g></svg>