<svg xmlns="http://www.w3.org/2000/svg" xmlns:xlink="http://www.w3.org/1999/xlink" width="82" height="82" viewBox="0 0 82 82"><defs><style>.a{fill:#404d7a;}.b{fill:rgba(0,0,0,0);}.c{fill:#ffd400;}.d{fill:none;}.e{filter:url(#c);}.f{filter:url(#a);}</style><filter id="a" x="13.333" y="5.333" width="55.333" height="71.333" filterUnits="userSpaceOnUse"><feOffset dy="3" input="SourceAlpha"/><feGaussianBlur stdDeviation="3" result="b"/><feFlood flood-opacity="0.161"/><feComposite operator="in" in2="b"/><feComposite in="SourceGraphic"/></filter><filter id="c" x="0" y="0" width="82" height="82" filterUnits="userSpaceOnUse"><feOffset dy="3" input="SourceAlpha"/><feGaussianBlur stdDeviation="3" result="d"/><feFlood flood-opacity="0.161"/><feComposite operator="in" in2="d"/><feComposite in="SourceGraphic"/></filter></defs><g transform="translate(-817 -307.644)"><g transform="translate(826 313.644)"><g class="f" transform="matrix(1, 0, 0, 1, -9, -6)"><path class="a" d="M23.667,2A18.653,18.653,0,0,0,5,20.667c0,14,18.667,34.667,18.667,34.667S42.333,34.667,42.333,20.667A18.653,18.653,0,0,0,23.667,2Z" transform="translate(17.33 9.33)"/></g><g class="e" transform="matrix(1, 0, 0, 1, -9, -6)"><path class="b" d="M0,0H64V64H0Z" transform="translate(9 6)"/></g></g><g transform="translate(843.333 324.785)"><path class="c" d="M13.778,2C8.889,2,4,2.611,4,6.889V18.5a4.282,4.282,0,0,0,4.278,4.278L6.444,24.611v.611H9.17l2.444-2.444h4.608l2.444,2.444h2.444v-.611l-1.833-1.833A4.282,4.282,0,0,0,23.556,18.5V6.889C23.556,2.611,19.18,2,13.778,2Zm-5.5,18.333A1.833,1.833,0,1,1,10.111,18.5,1.831,1.831,0,0,1,8.278,20.333Zm4.278-8.556H6.444V6.889h6.111Zm2.444,0V6.889h6.111v4.889Zm4.278,8.556A1.833,1.833,0,1,1,21.111,18.5,1.831,1.831,0,0,1,19.278,20.333Z" transform="translate(0.889 0.444)"/><path class="d" d="M0,0H29.333V29.333H0Z"/></g></g></svg>